<?xml version="1.0" encoding="utf-8"?>
<!-- Generator: Adobe Illustrator 19.1.0, SVG Export Plug-In . SVG Version: 6.00 Build 0)  -->
<svg version="1.1" id="Layer_1" xmlns="http://www.w3.org/2000/svg" xmlns:xlink="http://www.w3.org/1999/xlink" x="0px" y="0px"
	 width="685.6px" height="106.3px" viewBox="0 0 685.6 106.3" style="enable-background:new 0 0 685.6 106.3;" xml:space="preserve"
	>
<style type="text/css">
	.st0{fill:#1D1D1B;}
	.st1{fill:#BD2418;}
</style>
<g>
	<g>
		<path class="st0" d="M112.4,52.3c0-11.7,8.2-21.6,21.8-21.6c13.7,0,21.9,9.9,21.9,21.6c0,11.8-8.2,21.7-21.9,21.7
			C120.6,74,112.4,64.1,112.4,52.3z M144.7,52.3c0-6.4-3.8-12-10.6-12c-6.7,0-10.5,5.6-10.5,12c0,6.5,3.8,12,10.5,12
			C140.9,64.3,144.7,58.8,144.7,52.3z"/>
		<path class="st0" d="M174.9,67.7v21h-10.8v-57h10.8v5.2c3.2-4,7.7-6.2,12.7-6.2c10.6,0,18.3,7.9,18.3,21.6S198.2,74,187.6,74
			C182.8,74,178.2,71.9,174.9,67.7z M194.6,52.3c0-7.1-4.2-12-10.4-12c-3.5,0-7.5,2-9.3,4.7v14.6c1.8,2.6,5.8,4.7,9.3,4.7
			C190.4,64.3,194.6,59.5,194.6,52.3z"/>
		<path class="st0" d="M211.2,52.3c0-12,8.8-21.6,21.4-21.6c12.3,0,20.7,9.2,20.7,22.7v2.4h-30.7c0.7,5.2,4.9,9.6,11.9,9.6
			c3.5,0,8.4-1.5,11-4.1l4.8,7c-4.1,3.8-10.6,5.7-17,5.7C220.7,74,211.2,65.5,211.2,52.3z M232.6,39.3c-6.7,0-9.7,5-10.2,9.1h20.3
			C242.5,44.5,239.7,39.3,232.6,39.3z"/>
		<path class="st0" d="M288.9,72.9V48c0-5.7-3-7.7-7.6-7.7c-4.3,0-7.6,2.4-9.4,4.9v27.8h-10.8V31.7h10.8v5.4
			c2.6-3.2,7.7-6.4,14.4-6.4c9.1,0,13.4,5.1,13.4,13.2v29.1H288.9z"/>
		<path class="st0" d="M338.9,72.9v-5.3c-3.2,4.1-7.8,6.3-12.7,6.3c-10.4,0-18.3-7.9-18.3-21.6c0-13.5,7.8-21.7,18.3-21.7
			c4.9,0,9.5,2.1,12.7,6.3V16h10.9v57H338.9z M338.9,59.6V45c-1.8-2.7-5.7-4.7-9.4-4.7c-6.1,0-10.4,4.9-10.4,12
			c0,7.1,4.3,12,10.4,12C333.2,64.3,337.1,62.4,338.9,59.6z"/>
		<path class="st0" d="M380.3,72.9v-4.3c-2.8,3.3-7.7,5.3-13.1,5.3c-6.6,0-14.4-4.4-14.4-13.7c0-9.7,7.8-13.3,14.4-13.3
			c5.5,0,10.3,1.8,13.1,5v-5.6c0-4.2-3.6-6.9-9.1-6.9c-4.4,0-8.5,1.6-12,4.9l-4.1-7.3c5-4.4,11.5-6.5,18-6.5c9.4,0,18,3.8,18,15.6
			v26.7H380.3z M380.3,63v-5.1c-1.8-2.4-5.2-3.6-8.7-3.6c-4.3,0-7.8,2.2-7.8,6.2c0,3.8,3.5,6.1,7.8,6.1
			C375,66.6,378.5,65.4,380.3,63z"/>
		<path class="st0" d="M400.6,62.7V41.2h-6.8v-9.5h6.8V20.4h10.9v11.3h8.4v9.5h-8.4v18.6c0,2.6,1.4,4.5,3.8,4.5
			c1.6,0,3.2-0.6,3.8-1.2l2.3,8.2c-1.6,1.5-4.5,2.6-9.1,2.6C404.7,74,400.6,70,400.6,62.7z"/>
		<path class="st0" d="M452.1,72.9v-4.3C449.3,72,444.4,74,439,74c-6.6,0-14.4-4.4-14.4-13.7c0-9.7,7.8-13.3,14.4-13.3
			c5.5,0,10.3,1.8,13.1,5v-5.6c0-4.2-3.6-6.9-9.1-6.9c-4.4,0-8.5,1.6-12,4.9l-4.1-7.3c5-4.4,11.5-6.5,18-6.5c9.4,0,18,3.8,18,15.6
			v26.7H452.1z M452.1,63v-5.1c-1.8-2.4-5.2-3.6-8.7-3.6c-4.3,0-7.8,2.2-7.8,6.2c0,3.8,3.5,6.1,7.8,6.1
			C446.9,66.6,450.3,65.4,452.1,63z"/>
		<path class="st0" d="M473.5,69.1c0-2.6,2.1-4.7,4.7-4.7s4.7,2.1,4.7,4.7s-2.1,4.7-4.7,4.7S473.5,71.7,473.5,69.1z"/>
		<path class="st0" d="M493.7,83.5l3.2-4.8c3.4,4.1,7.5,5.6,13.4,5.6c6.8,0,13.2-3.3,13.2-12.4v-5.9c-3,4.2-8,7.3-13.8,7.3
			c-10.8,0-18.4-8-18.4-21.4c0-13.2,7.5-21.4,18.4-21.4c5.6,0,10.5,2.7,13.8,7.3v-6.2h6.4v40.1c0,13.7-9.6,17.9-19.6,17.9
			C503.4,89.7,498.6,88.3,493.7,83.5z M523.6,61.1v-18c-2.2-3.6-7.2-6.7-12.3-6.7c-8.3,0-13.2,6.6-13.2,15.7c0,9.1,5,15.7,13.2,15.7
			C516.4,67.8,521.4,64.7,523.6,61.1z"/>
		<path class="st0" d="M533.6,52.3c0-12,7.9-21.6,20.4-21.6s20.4,9.7,20.4,21.6S566.6,74,554,74S533.6,64.2,533.6,52.3z M567.7,52.3
			c0-8.4-4.9-15.9-13.7-15.9s-13.8,7.5-13.8,15.9c0,8.5,5,16,13.8,16S567.7,60.7,567.7,52.3z"/>
		<path class="st0" d="M590.7,72.9l-17.2-41.3h6.9l13.8,33.8l13.7-33.8h7l-17.2,41.3H590.7z"/>
		<path class="st0" d="M611.2,69.1c0-2.6,2.1-4.7,4.7-4.7s4.7,2.1,4.7,4.7s-2.1,4.7-4.7,4.7S611.2,71.7,611.2,69.1z"/>
		<path class="st0" d="M617.2,86.6l2.3-4.9c1.5,1.5,3.3,2.6,5.9,2.6c3.8,0,6.7-2.2,6.7-7.4V31.7h6.4V77c0,8.1-4.4,12.7-12.2,12.7
			C622.1,89.7,619.9,88.7,617.2,86.6z M631,21.5c0-2.4,2-4.4,4.3-4.4c2.4,0,4.4,2,4.4,4.4c0,2.4-2,4.3-4.4,4.3
			C632.9,25.8,631,23.9,631,21.5z"/>
		<path class="st0" d="M645.5,52.3c0-12,8.5-21.6,20.3-21.6c12.5,0,19.8,9.7,19.8,22.1v1.6h-33.4c0.5,7.8,6,14.3,14.9,14.3
			c4.7,0,9.5-1.9,12.7-5.2l3.1,4.2c-4.1,4.1-9.7,6.3-16.4,6.3C654.3,74,645.5,65.2,645.5,52.3z M665.7,36c-8.8,0-13.2,7.4-13.5,13.8
			h27.1C679.2,43.6,675.1,36,665.7,36z"/>
	</g>
	<g>
		<g>
			<path class="st1" d="M26.1,8.6c-0.5-0.3-0.5-0.5-0.7-0.5C25.1,8,24.6,8,23.3,7.2c-1.2-0.9-1.3-0.1-1.9-0.3s-1.1-0.7-1.1-0.7
				s0,0.8,0.4,1.2C20.9,7.6,21,7.8,21,7.8L21.1,8c0,0.4-0.8-0.3-0.8-0.3C20.2,8.5,21,9,21.1,9.2c0,0.1,0.3,0.3,0.3,0.3
				s0,0.3-0.1,0.3c-0.1,0.1-0.5,0.4-0.5,0.4s0.8,0,1.1,0c0.3,0.1,0.8,0.4,1.5,0.5s1.1-0.3,1.3-0.1c0.3,0.1,0.7,0.1,0.7,0.1
				s0.1,0,0.1-0.3c0-0.3,0.1-0.7,0.3-1.2c0.1-0.5,0.1-0.4,0.5-0.3C26.3,8.9,26.5,8.6,26.1,8.6z M27.6,9L27.6,9
				c0.1,0,0.3-0.1,0.3,0.3c0,0.5,0.3,0.9,0.3,1.2c0,0.3,0.1,0.7,0.1,0.7s0.4-0.3,0.5-0.3c0.3-0.1,0.8,0.1,1.5,0
				c0.7-0.1,1.2-0.5,1.5-0.7s0.7,0,0.7,0s0-0.3-0.3-0.4c-0.1-0.1,0-0.3,0-0.3s0-0.1,0.1-0.3c0-0.1,0.8-0.4,0.8-1.2
				c0,0-0.7,0.1-0.7-0.1c0-0.1,0-0.1,0-0.1s0.1-0.3,0.3-0.4c0.1-0.1,0.1-1.1,0.1-1.1S32.6,6.6,32,6.8c-0.5,0.1-0.5-0.5-1.9,0.3
				C28.8,7.8,28,8,27.8,8.1c-0.3,0.1-0.5,0.5-0.5,0.5C27,8.8,27.3,9,27.5,9 M18.9,6.6c0,0-2-2.1-2.1-3.6c0-0.5,0.3-2.8,2.9-2.4
				c0.8,0.1,1.2,0.5,1.9,1.3c0.7,0.7,0.4,0.7,0.4,0.7s0.3-2,1.3-2.1c0.9-0.1,1.2,2.4,1.2,2.4c0,0.9,0.1-2.9,1.7-2.9
				c1.2,0,1.5,3.6,1.5,3.3c0,0,0.1-2.7,1.5-2.7c1.5,0,0.9,2.9,0.9,2.9s0.3-0.5,0.7-1.3c0.5-1.1,2.1-1.5,2.9-1.2
				c1.3,0.5,2.1,1.6,1.9,2.7c-0.4,1.5-1.9,2.8-1.9,2.8s0,0.4,0.1,1.7c0,1.3-1.3,2.9-1.3,2.9s1.1-0.4,1.5,0.9c0.4,1.3,0,2.8-2,4.7
				c-0.9,0.9-2.1,1.5-3.1,1.9l-0.1-1.2l0,0l0,0c3.1-0.7,3.5-3.6,3.5-3.6s-0.4,0.3-0.5,0.5c-0.3,0.3-0.1-0.9-0.5-0.7
				c0,0-0.4,2.4-2.5,2.5c-2.1,0.1-1.9-1.3-1.9-1.3h-0.4c0,1.2-1.9,1.2-1.9,1.2c-1.1-0.3-2.1-0.8-2.4-2.3c0-0.1-0.4,0.7-0.4,0.7
				c-0.5-0.1-0.7-0.3-0.7-0.3c0.7,2,2.3,2.9,3.5,3.3v1.2c-1.2-0.4-2.5-1.1-3.6-2c-2-2-2.4-3.3-2-4.7c0.4-1.3,1.5-0.9,1.5-0.9
				c-0.8-0.8-1.5-0.5-1.5-0.5c-1.1,0.7-0.7,1.7-0.7,1.7s-0.1,0.1-0.5-0.1c-0.5-0.3-1.1-0.9-1.1-0.9s0.7-1.6,1.3-1.7
				c0.5-0.1,1.3-0.1,1.3-0.1L19,9.3c0,0-1.5-0.3-2.1-0.5c-1.1-0.4-1.2-1.9-1.2-1.9c0.8-0.5,0.4-0.4,1.6-0.8
				C17.7,5.8,18.7,6.5,18.9,6.6 M33,3.7c0.7,0.3,0,2.1,0,2.1s1.1-0.8,1.5-1.7S34,1.7,33,1.9c-1.5,0.1-2,2.3-2,2.3
				C31.4,3.3,32.3,3.5,33,3.7z M21.7,4.1c0,0-0.8-2.1-2.4-2.3c0,0-2.1,0.1-1.2,2.4c0,0,0.1,0.4,0.9,1.2c0,0,1.1,0.9,0.8,0.1
				c-0.3-0.8-1.1-1.7-0.4-2.1s1.1-0.1,1.5,0.1C21,3.6,21.4,4,21.7,4.1z M23.5,1.9c0,0-0.5,0.1-0.7,1.6c0,0,0.5-0.3,1.1-0.1
				C24.1,3.3,23.9,2,23.5,1.9z M27.1,3.3c-0.1-2.1-0.8-2-0.8-2c-0.8,0.3-0.8,2-0.8,2C26.3,3.1,27.1,3.3,27.1,3.3z M29.6,3.3
				c0,0,0.1-1.6-0.4-1.7s-0.5,1.6-0.5,1.6C29.4,3.1,29.6,3.3,29.6,3.3z M33.2,10.5c1.6-1.5,0.9-4.1,0.9-4.1s0.7-0.5,1.2-0.3
				c1.2,0.4,0.8,0.3,1.6,0.8c0,0-0.1,1.6-1.2,1.9C34.7,9.2,36,8.8,35,9l-0.8,0.3c0,0,0.3,0.3,0.8,0.5c0.4,0.1,1.1,1.6,1.1,1.6
				S35.5,12,35,12.4c-0.4,0.3-0.5,0.1-0.5,0.1s0.1-1.2-0.4-1.5C34,10.9,33.5,10.5,33.2,10.5"/>
			<path class="st1" d="M28,43.1c-0.5-0.3-0.5-0.4-0.7-0.5c-0.3-0.1-0.8-0.1-2-0.9c-1.2-0.8-1.3-0.1-1.7-0.3
				c-0.5-0.1-0.9-0.7-0.9-0.7s0,0.7,0.3,1.2c0.1,0.1,0.3,0.4,0.3,0.4l0.1,0.1c0,0.4-0.8-0.3-0.8-0.3c-0.1,0.7,0.7,1.3,0.8,1.3
				c0,0.1,0.3,0.3,0.3,0.3s0,0.3-0.1,0.3c-0.1,0.1-0.5,0.4-0.5,0.4s0.8,0,1.1,0c0.3,0.1,0.7,0.4,1.3,0.5c0.5,0.1,1.1-0.3,1.2-0.1
				c0.3,0.1,0.5,0.1,0.5,0.1s0.1,0,0.1-0.3c0-0.3,0.1-0.5,0.3-1.1c0.1-0.5,0.1-0.3,0.5-0.3C28.3,43.5,28.4,43.2,28,43.1z M29.6,43.5
				L29.6,43.5c0.1,0,0.3,0,0.3,0.3c0,0.5,0.3,0.9,0.3,1.1c0,0.3,0.1,0.7,0.1,0.7s0.3-0.3,0.5-0.3c0.3-0.1,0.8,0,1.3,0
				c0.5-0.1,1.2-0.5,1.5-0.5c0.3-0.1,0.7,0,0.7,0s0-0.3-0.3-0.4c-0.1-0.1,0-0.3,0-0.3s0-0.1,0.1-0.3c0-0.1,0.8-0.4,0.7-1.1
				c0,0-0.7,0.1-0.7-0.1c0-0.1,0-0.1,0-0.1s0.1-0.1,0.3-0.4c0.1-0.1,0.1-0.9,0.1-0.9s-0.3,0.3-0.8,0.4c-0.5,0.1-0.5-0.5-1.7,0.3
				c-1.2,0.7-2,0.8-2.3,1.1c-0.1,0.3-0.5,0.5-0.5,0.5c-0.3,0.1,0,0.4,0.3,0.4 M21.1,41.2c0,0-1.9-2.1-2-3.5c0-0.5,0.3-2.7,2.8-2.3
				c0.7,0.1,1.2,0.5,1.7,1.2c0.7,0.7,0.5,0.5,0.5,0.5s0.3-1.9,1.3-2c0.9-0.1,1.2,2.3,1.2,2.3c0,0.9,0.1-2.8,1.6-2.8
				c1.2,0,1.5,3.5,1.5,3.2c0,0,0.1-2.5,1.3-2.5c1.3,0,0.9,2.8,0.9,2.8s0.3-0.4,0.7-1.2c0.5-0.9,2-1.5,2.8-1.2c1.2,0.5,2,1.5,1.7,2.7
				c-0.3,1.5-1.7,2.7-1.7,2.7s0,0.3,0.1,1.6c0,1.3-1.2,2.8-1.2,2.8s1.1-0.4,1.3,0.8c0.4,1.2,0,2.7-2,4.5c-0.8,0.8-2,1.5-2.9,1.7
				v-1.2l0,0l0,0c2.9-0.7,3.2-3.5,3.2-3.5s-0.3,0.3-0.5,0.5c-0.3,0.3-0.1-0.9-0.4-0.7c0,0-0.4,2.4-2.4,2.5c-2,0.1-1.7-1.3-1.7-1.3
				h-0.4c0,1.1-1.9,1.2-1.9,1.2c-1.1-0.3-2-0.8-2.3-2.1c0-0.1-0.4,0.7-0.4,0.7c-0.4-0.1-0.7-0.3-0.7-0.3c0.5,1.9,2.1,2.8,3.3,3.2
				v1.2c-1.1-0.4-2.4-0.9-3.5-2c-1.9-1.9-2.3-3.2-2-4.5c0.4-1.2,1.3-0.8,1.3-0.8c-0.4-0.4-1.1-0.1-1.1-0.1c-0.9,0.5-0.7,1.6-0.7,1.6
				s-0.1,0.1-0.5-0.1c-0.5-0.3-0.9-0.8-0.9-0.8s0.7-1.6,1.2-1.6c0.5-0.1,1.3-0.1,1.3-0.1l-0.1-0.1c0,0-1.3-0.3-2-0.5
				c-0.9-0.4-1.2-1.9-1.2-1.9c0.8-0.5,0.4-0.4,1.5-0.8C20.2,40.4,21.1,41.1,21.1,41.2 M34.6,38.4c0.5,0.3,0,2,0,2s0.9-0.7,1.5-1.7
				c0.4-0.9-0.3-2.3-1.3-2.1c-1.5,0.1-1.9,2.1-1.9,2.1C33.1,38,34,38.2,34.6,38.4z M23.9,38.8c0,0-0.8-2-2.3-2.1c0,0-2,0.1-1.1,2.3
				c0,0,0,0.4,0.8,1.1c0,0,1.1,0.9,0.8,0.1c-0.3-0.8-1.1-1.7-0.4-2c0.7-0.3,1.1-0.1,1.3,0.1C23.3,38.3,23.7,38.7,23.9,38.8z
				 M25.7,36.7c0,0-0.5,0.1-0.5,1.5c0,0,0.5-0.3,1.1-0.1C26.2,38,26.1,36.8,25.7,36.7z M29.1,38c-0.1-2-0.8-1.9-0.8-1.9
				c-0.8,0.3-0.7,2-0.7,2C28.3,37.9,29.1,38,29.1,38z M31.5,38c0,0,0.1-1.6-0.4-1.6c-0.5-0.1-0.5,1.6-0.5,1.6
				C31.2,37.9,31.5,38,31.5,38z M34.8,44.9c1.5-1.5,0.9-4,0.9-4s0.7-0.3,1.2,0c1.1,0.4,0.5,0.3,1.2,0.7c0,0-0.1,1.2-1.1,1.6
				c-0.5,0.3-0.7,0.3-0.9,0.4l-0.4,0.1c0,0,0.3,0.3,0.8,0.4c0.4,0.1,1.1,1.5,1.1,1.5s-0.5,0.5-0.9,0.8c-0.4,0.3-0.5,0.1-0.5,0.1
				s0.1-1.2-0.4-1.5C35.6,45.2,35.2,44.9,34.8,44.9"/>
			<path class="st1" d="M30.4,77.1c-0.5-0.3-0.5-0.4-0.5-0.4c-0.3-0.1-0.7,0-1.7-0.8c-1.1-0.7-1.2-0.1-1.6-0.3
				c-0.4-0.1-0.8-0.5-0.8-0.5s0,0.7,0.3,1.1c0.1,0.1,0.3,0.3,0.3,0.3s0.1,0.1,0,0.1c0,0.3-0.7-0.1-0.7-0.1c0,0.7,0.7,1.1,0.7,1.2
				s0.3,0.3,0.3,0.3s0,0.1-0.1,0.3c-0.1,0.1-0.4,0.3-0.4,0.3s0.7,0,0.9,0s0.7,0.4,1.2,0.5s0.9-0.3,1.1-0.1c0.1,0.1,0.5,0.1,0.5,0.1
				s0.1,0,0.1-0.3s0.1-0.5,0.3-0.9c0.1-0.4,0.1-0.3,0.5-0.3C30.6,77.4,30.7,77.1,30.4,77.1z M31.8,77.4L31.8,77.4
				c0.1,0,0.1,0,0.3,0.3c0,0.4,0.3,0.8,0.3,0.9c0,0.3,0.1,0.5,0.1,0.5s0.3-0.1,0.5-0.3c0.1-0.1,0.7,0,1.2,0c0.5-0.1,1.1-0.4,1.3-0.5
				c0.3,0,0.7,0,0.7,0s0-0.1-0.1-0.3c-0.1,0,0-0.3,0-0.3s0-0.1,0.1-0.3c0-0.1,0.7-0.3,0.7-0.9c0,0-0.5,0.1-0.7-0.1
				c0-0.1,0-0.1,0-0.1s0.1-0.1,0.3-0.3c0.1-0.1,0.1-0.8,0.1-0.8s-0.3,0.3-0.7,0.4c-0.4,0.1-0.4-0.4-1.6,0.3c-1.1,0.7-1.9,0.8-2,0.9
				s-0.5,0.4-0.5,0.4c-0.3,0.1,0,0.3,0.1,0.3 M24.2,75.4c0,0-1.7-1.9-1.7-2.9c0-0.4,0.3-2.4,2.5-2c0.7,0.1,1.1,0.5,1.6,1.1
				C27.1,72,27,72,27,72s0.3-1.6,1.2-1.7c0.8-0.1,1.1,1.9,1.1,1.9c0,0.8,0.1-2.4,1.5-2.4c1.1,0,1.3,2.9,1.3,2.7c0,0,0.1-2.3,1.2-2.3
				c1.2,0,0.8,2.4,0.8,2.4s0.3-0.4,0.7-1.1c0.4-0.8,1.7-1.2,2.4-0.9c1.1,0.4,1.7,1.2,1.6,2.3c-0.3,1.2-1.6,2.3-1.6,2.3
				s0,0.3,0.1,1.5c0,1.1-1.1,2.4-1.1,2.4s0.9-0.3,1.2,0.8c0.3,1.1,0,2.3-1.7,3.9c-0.8,0.7-1.7,1.2-2.7,1.6v-1.1l0,0l0,0
				c2.7-0.5,2.9-2.9,2.9-2.9s-0.3,0.3-0.5,0.4c-0.3,0.3-0.1-0.8-0.4-0.5c0,0-0.4,2-2.1,2.1s-1.6-1.1-1.6-1.1h-0.4
				c0,0.9-1.6,0.9-1.6,0.9c-0.9-0.1-1.9-0.7-2.1-1.9c0-0.1-0.4,0.5-0.4,0.5c-0.4-0.1-0.7-0.3-0.7-0.3c0.5,1.6,1.9,2.4,2.9,2.8v1.1
				c-0.9-0.3-2.1-0.8-3.1-1.7c-1.7-1.6-2-2.8-1.7-3.9c0.3-1.1,1.2-0.8,1.2-0.8c-0.5-0.5-1.2-0.3-1.2-0.3c-0.9,0.5-0.5,1.5-0.5,1.5
				s-0.1,0.1-0.5-0.1c-0.4-0.3-0.9-0.8-0.9-0.8s0.5-1.3,1.1-1.5c0.5-0.1,1.2-0.1,1.2-0.1l-0.1-0.1c0,0-1.2-0.3-1.9-0.4
				c-0.9-0.3-1.1-1.6-1.1-1.6c0.7-0.4,0.3-0.3,1.3-0.7C23.3,74.8,24.2,75.4,24.2,75.4 M36.2,73c0.5,0.3,0,1.7,0,1.7s0.9-0.7,1.3-1.5
				s-0.3-2-1.2-1.9c-1.3,0.1-1.7,1.9-1.7,1.9C35,72.7,35.8,72.8,36.2,73z M26.7,73.4c0,0-0.7-1.7-2-1.9c0,0-1.9,0.1-1.1,2
				c0,0,0,0.3,0.8,0.9c0,0,0.9,0.8,0.7,0.1c-0.3-0.7-0.9-1.5-0.4-1.7c0.5-0.3,0.9-0.1,1.2,0.1C26.1,73,26.5,73.2,26.7,73.4z
				 M28.2,71.5c0,0-0.4,0.1-0.5,1.3c0,0,0.4-0.3,0.9-0.1C28.6,72.7,28.6,71.6,28.2,71.5z M31.2,72.7c-0.1-1.7-0.8-1.6-0.8-1.6
				c-0.7,0.3-0.7,1.7-0.7,1.7C30.6,72.6,31.2,72.7,31.2,72.7z M33.4,72.7c0,0,0.1-1.3-0.3-1.5c-0.4,0-0.5,1.3-0.5,1.3
				C33.2,72.6,33.4,72.7,33.4,72.7z M36.4,78.6c1.3-1.2,0.8-3.5,0.8-3.5s0.9-0.3,1.5-0.1c0.7,0.3,0.8,0.4,1.1,0.9
				c0,0-0.4,0.9-1.2,1.3c-0.4,0.3-0.8,0.3-1.1,0.4h-0.3c0,0,0.4,0,0.8,0.3c1.1,0.7,0.8,1.3,0.8,1.3s-0.4,0.5-0.9,0.8
				c-0.3,0.1-0.5,0.1-0.5,0.1s0.1-0.9-0.4-1.2C37.2,79,36.7,78.6,36.4,78.6"/>
			<path class="st1" d="M49.3,40.1L49.3,40.1L49.3,40.1L49.3,40.1z M88.1,68.3c-0.5-0.3-0.5-0.8-0.5-0.8s0.4-0.3,0.5-1.5
				c0.1-1.2-0.9-1.9-0.9-1.9c0.8,0.1,2-1.1,1.5-2.4c-0.7-1.5-2-0.9-2.5-0.5c-0.1,0.1-0.3,0.1-0.3,0.1s0.1-0.1,0.3-0.1
				c0.7-0.5,2.3-1.7,1.3-3.1c-1.2-1.6-3.3,0-3.3,0c0.8-0.7,2.5-2.1,1.1-3.3c-0.9-0.7-1.9-0.1-2.5,0.3c-0.3,0.3-0.5,0.4-0.7,0.5
				c0,0,0.3-0.3,0.7-0.5c0.7-0.5,1.3-1.3,0.7-1.9c-1.6-1.2-3.3,0.8-3.3,0.8s-2.7-1.9-5.1-1.5s-4.4,0.7-5.5,0.7
				c-0.9,0-3.3-0.7-3.7-1.6c-0.5-0.8-0.9-1.2-1.2-1.3c-0.1,0-0.3-0.1-0.3-0.1s0.1,0,0.3,0.1c0.4,0.1,1.2,0.5,1.9,1.1
				c0.3,0.3,2.7,0.1,3.3,0.1c0.9,0,0.9,0.1,2.3,0c6.4-0.1,9-0.3,11.2-2.3c2.4-2,0.4-5.2,0.1-5.6c-1.3-1.6-3.3-2.1-5.6-2.1
				s-29.9,0.5-31.9,0.5c-2,0-4.9,0.1-6-1.1c-1.2-1.3,0.4-3.1,1.5-3.2c0.9,0,2,1.1,2.8,1.2c0.8,0.1,1.6,0.5,2.8,0.9
				c1.1,0.3,2,0,2.1-0.1L47.5,38c0,0-0.4,0-0.8,0c-0.3,0-0.3-0.5,0-0.5c0.3,0,1.1,0,1.1,0s1.1,1.5,1.9,2c0.8,0.5,1.9,0.4,2.5,0.4
				h0.1c0.8,0,1.7,0,1.7,0L52.4,38c0,0-0.4,0-0.8,0c-0.3,0-0.4-0.4,0-0.4c0.3,0,1.1,0,1.2,0c0.1,0,1.1,1.5,1.9,2
				c0.9,0.5,2.1,0.4,2.8,0.4s1.1-0.4,1.1-0.4l-1.7-1.5h-0.7c0,0-0.3-0.4,0-0.4c0.4,0,1.1,0,1.1,0c1.7,1.6,2,1.7,2.4,2
				c0.8,0.5,1.7,0.4,2.3,0.4c0.7,0,1.1-0.5,1.1-0.5l-1.2-1.3h-0.9c0,0-0.4-0.4,0-0.4s1.2,0,1.2,0s1.1,1.2,1.9,1.9
				c0.8,0.7,1.7,0.5,2.8,0.4c1.1-0.1,1.3-0.5,1.3-0.5l-0.8-0.8l-0.5-0.5c-0.3-0.1-1.1,0-1.2,0c-0.1,0-0.3-0.5,0-0.5s1.5,0,1.5,0
				s0.8,0.8,1.7,1.3c0.9,0.5,2.1,0.4,3.5,0c1.3-0.4-0.4-1.1-0.4-1.1s-0.4-0.3-0.7-0.4c-0.3-0.1-0.7-0.4-0.4-0.8
				c0.1-0.3,1.3,0.4,1.3,0.4s0.3,0,0.5,0.3c0.4,0.1,2.3,1.1,7.3-2.4l-35.4,0.1c-2.7,0-5.5,0.7-6.6,3.2c-0.4,0.7-0.5,1.5-0.4,2.1
				c0.7,0.3,0.5,0.3,1.1,0.7c0,0-0.1,0.8-0.5,1.3c0.3,0.5,0.7,0.9,1.1,1.2c1.5,1.1,5.3,0.7,11.3,0.7h27.1c1.3,0,3.1,0.3,3.9,1.1
				c1.2,1.2-0.5,2.8-1.7,2.8c-1.2,0-7.3,0.1-10.4,0.1s-15.8-0.3-19.5-0.1c-2.5,0.1-6.4,0.1-8-0.1c-0.4-0.1-0.4-0.5-0.5-0.8
				c-0.4,0.4-0.9,0.5-0.9,0.5s-0.7,0.1-0.9,0.4c-0.4,0.3-0.9,0.4-0.9,0.4c0-0.8,0-1.1,0-1.1c-1.2,0-2.1,0.3-2.1,0.3s0.1-0.1-0.9,1.9
				s-4.5,3.2-4.5,3.2c0,3.2-2.1,3.2-2.1,3.2c-2.4-0.3-2.3-2.9-2.3-2.9c-4.3-1.5-5.3-4-5.3-4l-1.1-0.3c-0.4-0.3-0.7-0.7-1.2-1.1
				c-1.3-1.2-2.7-2-3.2-3.1c-0.5-1.1-1.9-2.9-1.6-4c0.3-1.1,0.5-2.7,0.5-2.9s0.1-0.7,0.1-1.2c0-0.8-1.7-1.1-1.7-1.1
				c1.5,0.9,0.8,1.9,0.8,1.9c-0.3,0.3-0.5,1.2-2,1.3c-0.8,0-0.7,1.5-0.7,1.5l0.4,1.6l0.7,2.1c0,0-0.9-1.5-1.3-2.5
				c-0.4-0.8-1.6-3.7-2.1-4.9c-0.5-1.2-2.3-1.1-2.3-1.1c2,0.7,1.2,2.4,1.2,2.4S7.4,38.5,7,39.6c-0.5,1.3,0.7,2.1,0.7,2.1l2.3,2
				l0.9,0.7c0,0-1.3-0.3-1.9-0.7c-0.5-0.4-1.3-0.9-2.4-1.5c-1.3-0.7-3.9,0.5-3.9,0.5c0.8,0.1,1.7-0.3,2.1,0.8c0,0,0.3,1.5,1.1,2.1
				c1.2,1.2,1.9,1.1,2.8,0.9c0.8-0.1,1.1,0.1,1.7,0.5c0.7,0.4,1.2,0.9,0.9,1.3c-0.3,0.5-0.3,1.2-0.4,2.1c-0.1,0.9,0.1,3.6,1.6,3.9
				c1.6,0.3,3.5-1.5,3.5-1.5s0,0-0.8,1.2s-0.7,3.2,1.5,3.7c1.5,0.4,2.8-0.3,3.6-0.7c0.3,1.1,0.7,1.7,1.2,2c0,0.1-0.1,0.1-0.1,0.1
				s-0.7,0.1-3.7,0c-3.1-0.1-3.7-1.6-4.5-2s-0.9-0.8-1.2-2c-0.4-1.3-1.5-2.7-2.3-3.5c-1.3-1.5-3.5-0.5-3.5-0.5s1.5,0.1,1.7,0.8
				s0.4,0.3,0,1.5c-0.4,1.2,0.8,2.9,0.8,2.9l-0.9-0.9c-0.3-0.3-0.4-0.3-1.2-0.9c-0.7-0.7-1.3-0.7-1.3-0.7c-0.8,0-0.9,0.4-1.6,0.4
				s-1.5,0.7-1.5,0.7s2.4-0.4,2.3,1.2c0,0.8,0.3,0.9,0.7,1.3c0.3,0.3,1.3,0.8,2.1,0.8l1.1,0.1H6.6c-1.1,0.1-1.9,1.2-1.9,1.2
				c-1.5,0.4-1.6,2.3-1.6,2.3s0.3-0.7,0.8-0.9c0.5-0.3,1.6,0,2.7,0.5c1.1,0.5,4.3-1.1,3.3-0.4c-0.9,0.7-1.7,3.1,0.7,3.9
				c2.4,0.8,3.9-2.5,3.9-2.5l-0.3,0.8c0,0-0.8,2.3,1.5,2.9s3.9-2.1,3.9-2.1s-0.1,0.3-0.1,0.9c0,0.8,0.4,2,2.1,2.4s2.7-1.9,2.7-1.9
				s0.1,0.5,0.3,0.9c0.1,0.4,0.9,1.1,2.3,0.8c2.1-0.5,1.9-2.4,1.9-2.4s0.4,0.1,1.5-0.4l0,0c0.8,0.3,1.3,0.4,1.3,0.4
				c0.7-0.3,1.2-2.8,1.2-2.8c1.5,0.3,0.9-1.1,0.9-1.1c0.4,0.5,1.2,0.9,1.2,0.9c1.2,0.7,3.1,0.5,3.1,0.5c0.1-0.7,0.3-1.3,0.1-2.1
				c1.1-0.3,2.5-0.7,4.1-1.3c2.9-1.3,3.7-2.3,4.9-2.5c2.9-0.8,3.3-0.4,4.1-0.4c2,0.1,2.4,0.3,2.4,0.3c0.1,2.7,2.8,4.1,2.8,4.1
				c0.8,0.7,2.3,0.9,2.1,1.1c-0.7,0.4-1.1,0.1-2.8,0.3c-1.7,0.1-4.3,0.4-4.3,0.4s0-0.4-0.4-0.9c-0.4-0.7-1.2-0.9-1.7-1.5
				c-0.5-0.5-0.4-0.4-0.9-1.5c-0.7-1.5-2.1-0.9-2.1-0.9c1.1,0.8,0.9,0.7,1.2,1.3c0,0.1-0.4,0.4-0.4,1.5c0,0.7,0.7,1.3,1.2,1.7
				c0.3,0.1,0.4,0.3,0.4,0.3s-0.1-0.1-0.4-0.3c-0.3-0.3-0.8-0.5-1.3-0.7c-0.9-0.3-1.2-0.3-2.1-0.1c-0.7,0.1-1.2,0.4-1.2,0.4
				c-1.3,0.3-1.9,1.7-1.9,1.7c0.9-1.1,1.9-0.7,1.9-0.7s0.9,0.1,1.5,0.9c0.4,0.7,1.5,0.7,2.4,0.5c0.8-0.3,1.7-0.4,1.7-0.4
				s-0.8,0.3-1.7,0.4c-0.7,0.1-1.3,0.4-1.6,0.5c-0.8,0.3-0.8,1.5-0.8,1.5c-0.8,0.3-0.9,1.6-0.9,1.6c0.5-0.5,1.1-1.3,2-0.8
				c0.4,0.3,1.1,0.5,2.5,0.3c1.5-0.3,2.3-1.5,2.3-1.5s-0.3,0.9,0.4,1.9c0.7,0.9,1.6,1.1,1.6,1.1s0.8,0,1.5-0.9s0.3-2.3,0.3-2.3h0.3
				c0,0,0,0,0,0.4c0,0.4-0.1,3.5,2.3,3.3c1.9-0.1,2.1-2.5,2.1-3.6c0-0.3,0-0.5,0-0.5s0,0.1,0,0.5c0,0.7,0.1,1.6,0.4,2.3
				c0.5,1.1,2.4,1.2,2.4,1.2s0.5-0.1,1.2-1.2c0.4-0.7,0.5-1.7,0.7-2.7l0,0c0,0.5,0.3,1.2,0.7,1.5c1.3,1.1,2.7,0.1,2.7,0.1
				s1.1-1.2,0.8-2.4s-1.3-2-1.9-2.5c-0.7-0.7-1.7-1.1-2.1-1.5c0,0-1.9-0.1-4.7-1.5c-3.5-1.6-4.3-3.5-4.3-3.5l-0.3-0.7
				c0,0-1.6-1.6-1.6-1.5L53,53.3l2.8,0.8c0.5,1.2,2.3,3.1,4.7,4c2.9,1.2,5.5,1.5,7.6,1.3c2.1-0.1,6.1-1.2,8.1-1.2
				c1.9,0,3.3,1.1,3.9,2.1c0.5,1.1,1.3,2.3,1.1,3.2c-0.3,0.9-0.8,1.3-1.9,2c-0.8,0.9-0.5,1.9-0.5,1.9s0.3,0.4-0.1,0.9
				c-0.3,0.4-0.1,1.5-0.1,1.5s0.1-1.3,0.9-1.2c0.3,0.1,0.7-0.1,0.7-0.1s0.1,0,0.7,0.3c0.7,0.1,1.2-0.5,1.2-0.5s-0.3-0.3-0.3-0.9
				c0-0.7,0.4-1.3,0.4-1.3s0,0.5,0,1.3c-0.1,0.8,0.5,1.2,0.5,1.2c0,0.5-0.3,1.3,0.3,2.1c0.5,0.8,1.2,0.7,1.2,0.7s-0.5-0.1-0.7-0.9
				c-0.1-0.7,0.5-1.1,0.5-1.1s0.5,0,1.1-0.8S84.7,65,84.7,65l0.3,0.5c0,0,0.5,0.5,0.5,1.5c0,0.5,0.8,0.7,0.8,0.7s0.1,0.5,1.1,0.9
				c0.8,0.4,1.7-0.4,1.7-0.4S88.7,68.5,88.1,68.3z"/>
			<path class="st1" d="M90.3,31.5c-0.5-0.3-0.5-0.8-0.5-0.8s0.4-0.3,0.5-1.5c0.1-1.2-0.9-1.9-0.9-1.9c0.8,0.1,2-1.2,1.5-2.4
				c-0.7-1.5-2.1-0.9-2.7-0.5c0.7-0.5,2.4-1.9,1.5-3.2c-1.2-1.7-3.5,0-3.5,0c0.8-0.7,2.7-2.3,1.2-3.3c-0.9-0.7-2-0.3-2.7,0.3
				c0.7-0.5,1.5-1.3,0.8-1.9C83.9,15,82,17.1,82,17.1S79,17,76.4,17.4c-2.5,0.4-3.9-0.1-4.9-0.1c-0.9,0-2.1,0.1-2.7-0.8
				c-0.8-1.3-2.9-1.7-2.9-1.7s2.8-0.1,3.5,0.8c0.4,0.7,2,0.3,2.7,0.3c0.9,0,3.2,0,4.5,0c1.5,0,6.6,0.7,8.5-1.2
				c2.3-2.1,2.1-4.8,0.5-6.5c-1.7-1.7-3.9-1.5-6.1-1.5s-30,0.5-32.2,0.5c-2.1,0-6.6,0.3-6.8-1.2c-0.1-1.1,0.4-1.3,1.5-1.3
				s1.5,0.1,2.4,0.3c0.8,0.1,1.7,0.5,2.9,0.9s2.1,0,2.3-0.1l-1.7-1.9c0,0-0.4,0-0.8,0c-0.3,0-0.4-0.5,0-0.5c0.3,0,1.1,0,1.2,0
				c0.1,0,1.1,1.5,2,2c0.9,0.5,2,0.4,2.7,0.4H53c0.9,0,1.9,0,1.9,0l-1.7-1.9c0,0-0.4,0-0.8,0c-0.3,0-0.4-0.4,0-0.4
				c0.3,0,1.1,0,1.2,0c0.1,0,1.1,1.5,2,2c0.9,0.5,2.1,0.4,2.9,0.4s1.1-0.4,1.1-0.4l-2.1-1.9h-0.9c0,0-0.3-0.4,0-0.4
				c0.3,0,1.2,0,1.2,0c1.9,1.6,2.1,1.7,2.5,2c0.8,0.5,1.7,0.4,2.4,0.4c0.8,0,1.2-0.5,1.2-0.5l-1.3-1.5h-1.1c0,0-0.4-0.4,0-0.4
				c0.4,0,1.2,0,1.2,0s1.2,1.3,2,1.9c0.8,0.7,1.9,0.5,2.9,0.4c1.1-0.1,1.3-0.5,1.3-0.5l-0.8-0.8c0,0-0.5-0.5-0.5-0.7
				c-0.3-0.1-1.1,0-1.3,0c-0.1,0-0.3-0.5,0-0.5c0.3,0,1.5,0,1.5,0s0.8,0.8,1.7,1.5c1.1,0.7,3.6,0.5,5.1,0.1C75.8,4.1,74,3.5,74,3.5
				s-0.4-0.1-0.7-0.3c-0.3-0.1-0.3,0-0.5-0.3S73,2.4,73,2.4s0.3,0.1,0.5,0.3c0.4,0.1,1.7,0.8,4,0.9s3.3-1.1,3.3-1.1l-2.3-1.2
				c0,0,3.5,0.8,4.4,1.1c0.9,0.3,1.6-0.1,1.6-0.1c1.2-0.3,2-1.9,2-1.9s-39.7,0-42.5,0s-5.7,0.7-7,3.2c-1.1,1.9,0,4.3,1.5,5.3
				C40,10,43.9,9.8,50.1,9.8h28.4c1.3,0,4.1-0.1,4.1,1.1s-1.7,1.3-2.9,1.3h-9.6c-3.3,0-16.9,0.4-20.6,0.9c-3.7,0.5-9.3,1.1-9.3,1.1
				l0,0c0-0.4,0-0.9-0.3-1.5c0,0-0.7-0.1-2.4,0.5c-0.4,0.1-0.9,0.4-1.1,0.5c0-0.3,0-0.5,0-0.9c0,0-2.7-0.7-3.7,1.3
				c-0.7,2-2,2.3-3.5,4.4c-0.1,0.1-0.4,0.1-0.5,0.3l0,0c0,0.4-0.1,0.8-0.1,0.9c-0.5,1.6-1.5,1.9-2.1,1.9c-0.4,0-1.5-0.1-2.1-1.9
				c-0.1-0.3-0.1-0.5-0.1-0.8l0,0c-3.9-1.1-4.7-2.1-4.7-2.1c-0.5-0.3-0.9-0.5-0.9-0.5s-1.6-0.7-3.1-1.9c-1.3-1.2-3.1-3.7-3.6-4.8
				c-0.5-1.1-0.3-2.9,0-3.9c0.3-0.9,0.5-2.7,0.5-2.9s0.1-0.7,0.1-1.2c0-0.8-1.9-1.1-1.9-1.1c1.5,0.9,0.8,1.9,0.8,1.9
				c-0.3,0.3-0.5,1.3-2.1,1.3c-0.8,0-0.7,1.5-0.7,1.5l0.4,1.6L10.1,9c0,0-0.9-1.6-1.5-2.7C8.2,5.6,7,2.5,6.5,1.3
				C6,0.1,4.1,0.3,4.1,0.3c2.1,0.7,1.3,2.5,1.3,2.5S5.3,3.5,4.8,4.7C4.1,6,5.6,6.8,5.6,6.8l2.3,2l0.9,0.7c0,0-1.5-0.3-2-0.7
				C6.2,8.4,5.3,7.8,4.3,7.3c-1.3-0.7-4,0.5-4,0.5C1.2,8,2,7.6,2.5,8.6c0,0,0.4,1.5,1.1,2.1c1.3,1.2,2,1.1,2.9,1.1
				c0.8-0.1,1.1,0.1,1.9,0.5c0.7,0.4,1.2,0.9,0.9,1.5C9,14.4,9,15,8.9,16c-0.1,1.1,0.1,3.7,1.7,4c1.6,0.3,3.6-1.5,3.6-1.5
				s0,0-0.8,1.2c-0.8,1.2-0.7,3.3,1.6,3.9c1.3,0.4,2.3-0.8,3.1-1.2c-0.7,1.2,0.4,3.3,1.3,3.6c-0.8,0.1-1.9,0.1-3.1,0
				c-3.2-0.1-5.1-1.2-5.8-1.6c-0.8-0.5-1.1-1.2-1.1-2.7c0.1-1.5-0.8-2.9-1.6-3.7c-1.3-1.5-3.6-0.5-3.6-0.5s1.2,0.1,1.5,0.8
				c0.3,0.7,0.8,0.3,0.4,1.6c-0.5,1.2,0.8,3.1,0.8,3.1L6,21.9c-0.3-0.3-0.5-0.3-1.3-1.1c-0.8-0.7-1.5-0.7-1.5-0.7
				c-0.8,0-0.9,0.4-1.6,0.4S0,21.3,0,21.3s2.5-0.4,2.4,1.3c0,0.8,0.3,0.9,0.8,1.3c0.4,0.3,1.3,0.8,2.3,0.9L6.5,25H4.8
				c-1.1,0.1-1.9,1.2-1.9,1.2c-1.5,0.4-1.7,2.4-1.7,2.4s0.3-0.7,0.9-0.9c0.7-0.3,1.7,0,2.8,0.5c1.1,0.5,4.5-1.1,3.6-0.4
				c-1.1,0.7-1.7,3.1,0.7,4c2.5,0.8,4-2.5,4-2.5L12.9,30c0,0-0.8,2.4,1.5,2.9c2.4,0.7,4.1-2.1,4.1-2.1s-0.1,0.3-0.1,1.1
				s0.4,2.1,2.3,2.5c1.9,0.4,2.3-2.5,2.3-2.5s0.1,0.5,0.3,1.1c0.1,0.5,1.1,1.1,2.4,0.8c2.3-0.5,2-2.4,2-2.4s0.1,0,0.5,0
				c0.5,0.3,1.1,0.4,1.7,0.5c0,0,0.9-1.7,1.1-3.1c0.7,0.1,0.7,0.1,1.1,0c0.1-0.1,0.3-0.3,0.4-0.4c1.1,0.8,2.5,1.3,4.1,1.2
				c0,0,0.4-1.5,0.1-3.1c1.1-0.1,2.8-0.1,5.1-1.2c3.1-1.3,4-2.4,5.1-3.2c1.1-0.8,2.1-1.7,2.9-2c0.9-0.4,2.7-0.9,2.7-0.9
				s2.9-0.8,2.3,1.3c-0.3,0.9-1.6,2.1,0.8,4.1s6.9,1.7,7.3,1.7c0.4,0.1,0.9,0.5,0.3,1.1c-0.7,0.5-2.5,0.5-4.4,0.7
				c-1.7,0.1-5.2,0-5.2,0s0-0.4-0.4-1.1s-1.3-1.1-1.7-1.5c-0.5-0.5-0.4-0.5-0.9-1.5c-0.8-1.6-2.3-0.9-2.3-0.9
				c1.1,0.8,0.8-0.1,1.2,1.3c0,0.1-0.4,0.4-0.4,1.5c0,0.8,0.7,1.3,1.2,1.7c-0.4-0.3-0.8-0.5-1.5-0.7c-1.1-0.3-1.3-0.3-2.1-0.1
				c-0.8,0.1-1.2,0.4-1.2,0.4c-1.5,0.3-1.9,1.9-1.9,1.9c0.9-0.5,2-0.7,2-0.7s0.7,0.5,1.6,0.9c0.7,0.3,4.3,0.1,4.3,0.1
				s-2.7,0.5-3.5,0.9c-0.8,0.3-0.8,1.3-0.8,1.3c-1.2,0.3-1.1,1.9-1.1,1.9c0.5-0.5,1.6-0.7,2.1-0.8c0.4-0.1,1.1,0.3,2.5,0.1
				c1.6-0.3,3.1-1.6,3.1-1.6s-0.3,1.1,0.5,2c0.7,0.9,1.7,1.1,1.7,1.1s0.8,0,1.5-0.9c0.7-0.9,0.3-2.4,0.3-2.4h0.3c0,0,0,0,0,0.4
				s0,2.7,2.5,2.5s2-3.3,2-3.3s0.3,0.9,0.8,1.7c0.5,1.1,2.4,1.3,2.4,1.3s0.5-0.1,1.3-1.3c0.8-1.2,0.1-2.9,0.1-2.9s0.3,0.7,1.3,1.6
				c1.1,0.9,2.8,0.1,2.8,0.1s1.2-1.2,0.5-2.3c-0.7-1.1-2.3-2.9-2.8-3.3c-0.7-0.5-1.5-1.2-1.5-1.2s-3.5-0.3-6.5-1.3
				c-4.1-1.5-4.7-6.1-4.7-6.1s2,2.7,4.3,4c2.8,1.7,6.4,2,8.6,2c2.3-0.1,7.7-1.3,9.7-1.3c2,0,2.8,1.2,3.5,2.3
				c0.7,1.1,1.5,2.4,1.2,3.3c-0.3,1.1-0.8,1.3-2,2c-1.5,0.3-1.2,1.2-1.2,1.2s0.3,0.4-0.1,0.9C79.9,32,80,33,80,33s0.3-1.3,0.9-1.2
				c0.3,0.1,0.7-0.1,0.7-0.1s0.1,0.1,0.8,0.3c0.7,0.1,1.2-0.5,1.2-0.5s-0.3-0.3-0.3-0.9c0-0.8,0.4-1.5,0.4-1.5s0,0.7,0,1.3
				c-0.1,0.8,0.7,1.3,0.7,1.3c0,0.5-0.3,1.3,0.4,2.3c0.7,0.8,1.2,0.7,1.2,0.7s-0.5,0-0.7-0.9c-0.1-0.8,0.5-1.1,0.5-1.1
				s0.7,0,1.2-0.8c0.5-0.8-0.3-3.6-0.3-3.6l0.3,0.5c0,0,0.5,0.5,0.5,1.5c0,0.5,0.8,0.7,0.8,0.7s0.1,0.5,1.1,0.9
				c0.9,0.4,1.9-0.4,1.9-0.4S90.8,31.8,90.3,31.5z"/>
			<path class="st1" d="M31.2,88.3L31.2,88.3L31.2,88.3L31.2,88.3z M79.8,91.1c-0.7-1.7-2.4-1.5-2.4-1.5c2.4-0.7,2-3.5,2-3.5
				c-3.2-1.5-5.2,0.7-5.2,0.7c-2.8-0.8-6.4,0.4-7.3,0.4c-0.8,0-2-0.9-2.7-1.6c-0.8-0.8-2.5-1.1-2.5-1.1s2.1,0,2.9,0
				c0.3,0,2.4,0,3.1,0c0.8,0,0.9,0,2.1,0c3.1-0.1,4.9,0,6.4-1.1c2.8-2,0.9-4.7,0-5.2c-2.3-1.2-3.5-0.9-5.5-0.9
				c-2,0-21.3,0.1-23.1,0.1s-4.3,0.1-4.9-1.1c-0.4-0.8,0.3-1.7,1.5-1.7c0.9,0,0.4-0.1,1.6,0.3c0.5,0.1,1.3,0.8,2.4,1.1
				c1.1,0.3,1.9,0,1.9-0.1l-1.5-1.7c0,0-0.4,0-0.7,0c-0.3,0-0.3-0.4,0-0.4c0.3,0,0.9,0,1.1,0s0.9,1.3,1.7,1.7
				c0.8,0.4,0.9,0.4,1.5,0.4h0.5c0.8,0,1.5,0,1.5,0l-1.5-1.7c0,0-0.4,0-0.7,0c-0.3,0-0.4-0.4,0-0.4c0.3,0,0.9,0,1.1,0
				c0.1,0,0.9,1.3,1.7,1.7c0.8,0.5,1.5,0.4,2.1,0.4s1.1-0.1,1.1-0.1l-1.9-1.5h-0.8c0,0-0.3-0.4,0-0.4c0.3,0,1.1,0,1.1,0
				c1.6,1.5,1.9,1.5,2.3,1.7c0.7,0.5,1.6,0.4,2.1,0.4c0.7,0,1.2-0.1,1.2-0.1l-1.3-1.5l-0.8-0.1c0,0-0.5-0.5-0.1-0.5
				c0.4,0,1.1,0,1.1,0s0.9,1.1,1.7,1.7c0.8,0.5,0.7,0.4,1.6,0.5c0.9,0.1,1.5,0,1.5,0L64.6,75l-0.5-0.5c-0.3,0-0.7,0-0.8,0
				s-0.4-0.7-0.3-0.7c0.3,0,1.3,0,1.3,0s1.2,1.5,2,1.9c0.8,0.3,1.2,0.3,1.9,0.1l1.1-0.4l-0.8-0.1c-0.8-0.4-1.2-0.9-1.2-0.9
				c-0.3,0-0.5,0-0.8,0c-0.1,0-0.4-0.7-0.3-0.7c0.3,0,1.3,0,1.3,0s0.7,0.9,1.3,1.2c0,0,0.7,0.3,1.9-0.4l-0.4-0.3
				c-0.5-0.3-0.3-0.5-0.3-0.5c0.3-0.1,0.5,0,0.5,0c0.4,0.1,1.9,1.2,3.5-1.5H45.9c-2.4,0-4.8,0.3-5.8,1.9c-1.1,1.6-0.4,4,0.9,4.9
				c1.3,0.9,4.3,0.8,9.7,0.8c2.8,0,18.2-0.1,19.7-0.1c1.2,0,2.8-0.1,3.5,0.5c0.9,1.1-1.5,1.7-2.5,1.7c-1.2,0-2.1,0.1-4.9,0.1
				s-14.2,0-17.7,0c-2.1,0.4-5.2,0.4-6.1,0.4c0.1-0.4,0.1-0.9,0-1.5c0,0-1.6,0.1-2.5,0.5c0-0.4,0-0.9,0-1.5c0,0-1.2,0-2.5,0.4
				c0,0.7-0.4,2-2.1,3.5c-0.7,0.5-1.2,0.9-1.7,1.2l-0.1-0.1l-0.1-0.1c0,0,0-0.1-0.1-0.1c-0.1-0.1-0.3-0.3-0.3-0.4
				c-0.1,0-0.3,0.1-0.4,0.1c0,0.1,0,0.3,0,0.5c0,0.1,0,0.5,0,0.7c0,0.3,0,0.5,0,0.8c0,0.1-0.1,0.7-0.1,0.8L32,87.7
				c0,0-0.5,0.5-0.8,0.5l0,0c-0.1,0-0.3,0.1-0.4,0.1c0,0-0.1,0-0.3,0c-0.1,0-0.3,0-0.4-0.1c-0.4-0.1-0.8-0.5-1.1-1.5L29,86
				c0,0-1.5-0.8-2.8-1.6l0,0c-0.4-0.3-0.9-0.7-1.3-1.2c-0.3-0.4-0.4-0.7-0.5-0.8c-0.5-0.7-0.5-1.6-0.5-1.6s-0.8-0.1-2.1-2
				c-0.1-0.1-0.9-0.7-1.2-0.8l0,0c-1.5-1.1-3.3-2.1-3.9-2.5c-0.9-0.7-1.2-2-0.7-2.9c0.8-1.3-0.3-2.1-0.7-2.7c-0.4-0.4-2-0.5-2-0.5
				s0.9,0.1,1.1,0.8c0.1,0.7-0.3,0.4-0.7,1.2c-0.3,0.5-0.3,0.8,0,1.1c0.3,0.3,0.4,1.1,0.4,1.1c-0.3-0.5-0.4-0.7-0.4-0.7
				c-0.5-0.3-0.4-0.9-0.4-0.9c-0.3-0.9-0.7-1.3-0.7-1.3l-0.4-0.3c0,0-0.5-0.3-1.2,0c-0.3,0.1-0.8-0.8-2.4,0.4c0,0,1.9-0.5,1.7,1.5
				c0,0.7,0,1.3,0.4,2c0.7,0.8,1.9,1.2,1.9,1.2s-0.8,0.1-1.3,0.3c-0.5,0.1-0.7,0.4-0.9,0.7c-0.3,0.4-0.9,0.3-1.5,0.4
				c-0.5,0.1-1.1,1.1-1.1,1.1s0.5-0.3,0.9-0.3c0.4,0,0.4,0.7,0.9,1.1c0.5,0.4,0.7,0.3,1.5,0.4c0.8,0.1,1.6-0.5,2.1-0.7
				c0.7-0.1,0.9,0.3,1.2,0.5c0.3,0.3,0.1,1.1,0.5,2.7c0.5,1.6,1.1,2.1,2.1,1.9c0.9-0.1,1.6-1.1,1.9-1.6c0.3-0.4,0.4-0.4,0.1,0.1
				c-0.3,0.3-0.3,1.9,0.1,2.9c0.4,1.1,1.3,1.3,1.9,1.1c0.5-0.1,1.1-0.8,1.5-1.3c-0.1,0.7-0.3,1.1-0.1,1.9c0,0.5,0.1,1.1,0.1,1.1
				c0,0.3,0.1,0.8,0.3,1.2c0,0,0.1,0.1,0,0.3c-1.6,0.3-3.2-0.8-3.7-1.1c-0.5-0.4-1.6-0.7-2.1-1.1c-0.5-0.4-1.2-1.5-1.5-2.3
				c-0.4-0.7-1.3-1.7-1.6-2.1c-0.7-0.9-1.9-0.1-1.9-0.1s0.7-0.1,1.1,0.3c0.4,0.4,0.3,0.9-0.1,1.5c-0.4,0.8,0.1,1.3,0.4,1.6
				c0.3,0.3,0.5,0.3,0.7,0.5c0.3,0.3-0.1,0.3-0.1,0.3s-0.3-0.3-1.7-0.4c-1.3-0.1-2.4,1.3-2.4,1.3s0.7-0.5,1.2-0.4
				c0.7,0.1,0.1,1.2,0.9,1.6c0.4,0.1,0.9,0.1,1.3,0.1c0.4-0.1,0.7,0,0.9,0c0.3,0,0.3,0.3,0.3,0.3s-0.1,0-0.8,0.1
				c-0.7,0.1-0.8,0.4-1.5,0.5c-0.9,0.3-1.1,1.7-1.1,1.7s0.9-1.5,1.3-0.3c0.3,0.5,0.8,0.8,1.7,0.8c0.9,0,3.3-1.1,3.3-1.1s0,0.1,0,1.7
				s0.5,2.4,1.7,1.9c1.2-0.5,2.1-2.7,2.1-2.7s0,0.4,0.1,2c0.1,1.6,1.3,2,1.3,2s0.3,0.3,1.5-0.4c1.2-0.7,1.7-2.5,1.7-2.5
				s0.3,1.2,0.5,2.1c0.4,0.9,1.1,2.1,2.1,1.3c0.8-0.5,0.9-1.9,0.9-2.7c0,0.3,0,0.7,0.1,1.1c0.1,0.8,0.8,2.1,2,1.9
				c0.4-0.1,0.7-0.4,0.8-0.7c0.1,0,0.7,0,0.8,0c0,0,0.5-0.4,0.5-1.2c0.9,0.1,1.1-0.4,0.5-1.2l0.4,0.3c0.8,0.4,0.4-0.9,0.4-0.9
				c0.4,0.1,0.1,0.1,1.1,0.5c0.8,0.3,1.7,0.5,2.4,0.4c0,0,0.3-0.5,0.1-1.1c1.1,0,2.7-0.4,4.5-2.9c0.9-1.2,3.3-1.5,4.5-1.5
				c1.5-0.1,2.3-0.1,2.9-0.1c1.7,0.1,2.4,0.9,2.4,0.9c-0.8,1.9,0.4,3.2,0.4,3.2c1.3,1.6,5.5,1.7,5.3,1.9c-0.7,0.4-1.2,0.8-2.5,1.5
				c-1.3,0.7-3.9,2.1-3.9,2.1s-2,1.6-2.4,1.2c-0.4-0.4-0.3-0.7-0.4-1.3c0-1.7-0.9-2.1-2-2.1c-1.9-0.1-2.3-0.1-2.3-0.1
				c0.8,0.4,1.2,0.5,1.5,1.1c0,0.1-0.3,0.5-0.3,1.5s1.5,1.5,1.5,1.5s0.8,0.5-0.1,0.5c-0.8,0-1.1-0.4-2.1,0.1
				c-0.7,0.3-0.8,0.9-0.8,0.9c-1.2,0.7-0.9,2.1-0.9,2.1c0.9-1.7,1.6-0.7,1.6-0.7s0.9,0.7,1.7,0.3c1.3-0.5,0.9-0.5,2-1.2
				c0,0,0.7-0.3-0.3,0.5c0,0-2,1.1-1.2,2.7c0,0-0.4,1.2,0.1,1.7c0,0,0-1.3,1.1-1.5c0,0,2.8,0.4,2.9-1.3l0.1-0.7
				c1.5,1.9,2.9,1.7,2.9,1.7c1.7-0.4,1.7-2.9,1.7-2.9s1.3,2.1,2.9,1.5c1.7-0.8,0.4-3.5,0.4-3.5c1.2,1.1,2.3,0.8,2.3,0.8
				c2.1-0.9,0.3-3.7,0.3-3.7c2.3-0.4,2.4-1.5,2.4-1.5c-0.3-1.6-2.9-1.9-2.9-1.9s-1.1-0.3-3.7-0.8c-3.2-0.3-3.7-2.3-3.7-2.4
				c0,0,0-1.7-0.8-2.3l-0.7-0.5l-0.8-0.7l0,0c3.2,0.5,3.6,2.7,3.6,2.7c0.8,1.3,0.7,1.5,2.9,2.4c2.1,0.9,4.4,0.9,5.7,0.9
				c0.5,0,2,0.1,3.6-0.3c0,0,2-0.5,3.2-0.9c0,0-0.3,2.5-0.5,3.1c-0.7,1.3-1.1,1.3-2.1,1.7c0,0-2.7-0.1-2.9,1.7c0,0-1.1,0.7-0.4,1.9
				c0,0,0-1.2,0.8-1.1c0,0,1.1,0.9,2.1-0.3c0.7-1.3,1.1-1.6,1.6-1.6c0,0-0.8,0.5-1.5,1.9c0,0.1-0.3,0.3-0.3,0.3s-1.6,0.4-1.3,1.5
				l0.1,0.1c0,0-0.5,0.8,0.3,1.9c0,0-0.4-1.7,0.8-1.6c0.8,0,1.9,0.4,2.3-0.7c0,0-0.4-1.5,0.5-2.8c0,0,0.1,0,0.1,0.1
				c0,0.1-1.2,2.1,0,3.2c0,0-0.3,1.1,0.9,1.9c0,0-0.8-1.5,0.4-1.5c0,0,0.1,0,0.4-0.1c0,0,1.6-1.3,0.8-3.5c0,0,2.1,1.1,2.9-0.7
				c0,0,0.5-0.7-1.1-1.9L75.4,95c2.3,0.3,3.3-0.7,3.3-0.7c0-1.7-1.6-2.1-1.6-2.1C79.5,92.3,79.8,91.1,79.8,91.1z M33.8,85.2
				L33.8,85.2L33.8,85.2L33.8,85.2z"/>
		</g>
	</g>
</g>
</svg>
